<?xml version="1.0" encoding="utf-8"?>
<!-- Generator: Adobe Illustrator 23.0.6, SVG Export Plug-In . SVG Version: 6.00 Build 0)  -->
<svg version="1.1" id="Warstwa_1" xmlns="http://www.w3.org/2000/svg" xmlns:xlink="http://www.w3.org/1999/xlink" x="0px" y="0px"
	 viewBox="0 0 1043.3 460.2" style="enable-background:new 0 0 1043.3 460.2;" xml:space="preserve">
<style type="text/css">
	.st0{fill:#F5333F;}
	.st1{fill:#FFFFFF;}
</style>
<path class="st0" d="M216.9,117.5L71.7,49.3V27.6L184.2,80V68c0-10-5.8-19.1-14.9-23.4l-91-42.4c-15.1-7-32.4,4-32.4,20.6v411.6
	c0,14.2,11.5,25.8,25.8,25.8h0v-90.9L171,323c8-3.7,13.1-11.8,13.1-20.6v0V130.2l20.1,9.3v116.1c14.3,0,25.8-11.5,25.8-25.8v-91.7
	C230.1,129.3,225,121.3,216.9,117.5z M158.4,300.4l-86.6,40.4v-21.7l86.6-40.4V300.4z M158.4,250.2l-86.6,40.4V77.8l86.6,40.4V250.2
	z"/>
<path class="st1" d="M504.9,169.5c-7.2-6-16.9-9-29.1-9c-10.3,0-19.2,2.7-26.7,8.1c-7.5,5.4-12,12.5-13.7,21.4l22.9,4.6
	c1.8-8.9,8.1-13.3,18.9-13.3c4.6,0,8.3,1.4,11.2,4.2c2.9,2.8,4.3,6.5,4.3,11.1v1.5h-26.2c-11.3,0-20.1,2.6-26.5,7.9
	c-6.4,5.3-9.6,12.3-9.6,21.2s3.2,16,9.5,21.5c6.3,5.5,14.7,8.2,25.1,8.2c11.4,0,20.6-3.4,27.7-10.2v7.5h22.9v-59.3
	C515.7,184,512.1,175.6,504.9,169.5z M492.7,217.3L492.7,217.3c0,5.7-2.4,10.5-7.1,14.5c-4.7,3.9-10.3,5.9-16.7,5.9
	c-4.6,0-8.3-1-11.2-3c-2.9-2-4.3-4.7-4.3-8.1c0-3.2,1.2-5.7,3.5-7.6c2.4-1.9,5.4-2.8,9.2-2.8h26.6V217.3z"/>
<path class="st0" d="M0,72.1v316.7c0,14.2,11.5,25.8,25.8,25.8V46.3C11.5,46.3,0,57.8,0,72.1z"/>
<path class="st1" d="M375,160.5c-12.4,0-22.4,3.5-30,10.6v-7.8h-24v134.5h24v-51.5c7.6,7,17.7,10.6,30,10.6c12,0,22.5-4.6,31.3-13.7
	c8.9-9.1,13.3-20.6,13.3-34.4c0-13.8-4.5-25.3-13.4-34.5C397.3,165.1,386.9,160.5,375,160.5z M389.1,228.5
	c-4.8,4.9-10.9,7.4-18.3,7.4c-6.8,0-12.8-2.5-18-7.6c-5.2-5-7.8-11.6-7.8-19.6s2.6-14.6,7.8-19.7c5.2-5.1,11.2-7.6,18-7.6
	c7.4,0,13.5,2.5,18.3,7.5c4.8,5,7.2,11.6,7.2,19.8C396.3,217,393.9,223.6,389.1,228.5z"/>
<path class="st1" d="M604.5,171.1L604.5,171.1c-7.6-7-17.7-10.6-30-10.6c-11.9,0-22.3,4.6-31.2,13.7c-8.9,9.2-13.4,20.7-13.4,34.5
	s4.4,25.3,13.3,34.4c8.9,9.1,19.3,13.7,31.3,13.7c12.4,0,22.4-3.5,30-10.6v6.4c0,7.6-2.5,13.5-7.6,17.5c-5,4-11.6,6-19.6,6
	c-5.7,0-10.3-1-13.8-3c-3.5-2-7.2-5.4-10.9-10.1l-19.5,16.6c8.4,13.4,23.1,20,44.2,20c15,0,27.3-3.8,36.9-11.5
	c9.5-7.6,14.3-18.3,14.3-31.9v-93h-24V171.1z M596.7,228.3c-5.2,5-11.2,7.6-18,7.6c-7.4,0-13.5-2.5-18.3-7.4
	c-4.8-4.9-7.2-11.5-7.2-19.8c0-8.3,2.4-14.9,7.2-19.8c4.8-5,10.9-7.5,18.3-7.5c6.8,0,12.8,2.5,18,7.6c5.2,5.1,7.8,11.7,7.8,19.7
	S601.9,223.3,596.7,228.3z"/>
<path class="st1" d="M898.9,179.8v-16.6h-24v90.8h24v-29.3c0-26,10.8-39,32.4-39h5.3l1.3-23.1c-1.5-0.5-3.6-0.7-6.4-0.7
	C918,162,907.1,167.9,898.9,179.8z"/>
<path class="st1" d="M1029,174.5c-9.5-8.9-21.1-13.4-34.7-13.4c-13.8,0-25.5,4.5-35.1,13.4c-9.6,8.9-14.4,20.4-14.4,34.3
	s4.8,25.4,14.4,34.3c9.6,8.9,21.3,13.4,35.1,13.4c13.6,0,25.2-4.5,34.7-13.4c9.5-8.9,14.3-20.4,14.3-34.3
	C1043.3,194.8,1038.5,183.4,1029,174.5z M1012.1,228.3c-5.2,5-11.2,7.6-17.8,7.6c-6.9,0-13-2.5-18.3-7.5c-5.3-5-7.9-11.5-7.9-19.7
	c0-8.1,2.6-14.7,7.9-19.7c5.3-5,11.4-7.5,18.3-7.5c6.7,0,12.6,2.5,17.8,7.6c5.2,5,7.8,11.6,7.8,19.6
	C1020,216.8,1017.3,223.3,1012.1,228.3z"/>
<path class="st1" d="M812.1,160.5c-12.4,0-22.4,3.5-30,10.6v-7.8h-24v134.5h24v-51.5c7.6,7,17.7,10.6,30,10.6
	c12,0,22.5-4.6,31.3-13.7c8.9-9.1,13.3-20.6,13.3-34.4c0-13.8-4.5-25.3-13.4-34.5C834.4,165.1,823.9,160.5,812.1,160.5z
	 M826.2,228.5c-4.8,4.9-10.9,7.4-18.3,7.4c-6.8,0-12.8-2.5-18-7.6c-5.2-5-7.8-11.6-7.8-19.6s2.6-14.6,7.8-19.7
	c5.2-5.1,11.2-7.6,18-7.6c7.4,0,13.5,2.5,18.3,7.5c4.8,5,7.2,11.6,7.2,19.8C833.4,217,831,223.6,826.2,228.5z"/>
<polygon class="st1" points="693.7,160.5 693.7,160.5 693.7,160.5 "/>
<polygon class="st1" points="812.1,160.5 812.1,160.5 812.1,160.5 "/>
<path class="st1" d="M693.7,160.5c-13.2,0-24.4,4.5-33.4,13.6c-9,9-13.6,20.6-13.6,34.7c0,14.1,4.5,25.6,13.5,34.6
	c9,9,20,13.5,33.1,13.5c10.2,0,19.1-2.4,26.8-7.1c7.6-4.7,13.4-11.7,17.3-20.9l-21.5-4.6c-4.7,8-12.3,12-22.6,12
	c-5.6,0-10.5-1.9-14.7-5.7c-4.2-3.8-6.9-9-8.1-15.4h69.2V207c-0.5-13.6-5.2-24.7-14.1-33.4C716.8,164.9,706.1,160.5,693.7,160.5z
	 M671.3,198.2c1.3-5.3,4.2-9.5,8.5-12.4c4.3-2.9,9-4.4,13.9-4.4c5.1,0,9.6,1.4,13.5,4.2c3.9,2.8,6.6,7,8,12.6H671.3z"/>
</svg>
